<?xml version="1.0" standalone="no"?><!DOCTYPE svg PUBLIC "-//W3C//DTD SVG 1.1//EN" "http://www.w3.org/Graphics/SVG/1.1/DTD/svg11.dtd"><svg t="1491668792398" class="icon" style="" viewBox="0 0 1024 1024" version="1.1" xmlns="http://www.w3.org/2000/svg" p-id="3053" xmlns:xlink="http://www.w3.org/1999/xlink" width="200" height="200"><defs><style type="text/css"></style></defs><path d="M548.7616 709.205333c-87.722667 0-248.067413 6.741333-341.476693-44.632746-50.377387-27.712853-70.341973-90.845867-86.125227-122.241707-17.92-46.15168-54.418773-46.015147-52.8384-60.429653-1.355093-15.23712 35.222187-16.06656 52.391253-61.975894 14.421333-32.32768 39.123627-92.951893 89.453227-116.30592 93.525333-43.400533 243.462827-44.796587 331.37664-42.4448 122.81856 3.293867 166.171307 117.701973 166.171307 214.132054-0.006827 96.426667-28.90752 233.898667-158.952107 233.898666z" fill="#96FF00" p-id="3054"></path><path d="M485.901653 729.975467c-99.98336 0-212.445867-5.635413-288.488106-47.455574-47.455573-26.108587-70.652587-78.09024-86.002347-112.482986-3.065173-6.867627-5.95968-13.35296-8.5504-18.507094a21.845333 21.845333 0 0 1-0.791893-1.785173c-8.318293-21.418667-20.875947-29.34784-31.955627-36.338347-9.2672-5.850453-23.10144-14.58176-22.306133-31.716693-0.433493-16.98816 13.2608-26.125653 22.439253-32.249173 10.973867-7.325013 23.40864-15.622827 31.290027-36.686507 0.146773-0.395947 0.3072-0.785067 0.477866-1.170773l2.245974-5.05856c15.90272-35.928747 42.519893-96.064853 97.29024-121.480534 64.392533-29.883733 162.225493-45.032107 290.778453-45.032106 16.0256 0 32.303787 0.22528 49.762987 0.692906 62.450347 1.675947 112.88576 29.893973 145.861973 81.60256 25.951573 40.690347 40.239787 95.0272 40.239787 153.00608 0 159.2832-67.075413 254.378667-179.42528 254.378667-8.516267 0-17.72544 0.064853-27.4944 0.13312-11.137707 0.07168-22.992213 0.150187-35.372374 0.150187zM139.881813 533.992107c2.87744 5.792427 5.823147 12.386987 8.92928 19.350186 13.902507 31.15008 32.938667 73.80992 68.34176 93.2864 68.314453 37.57056 179.5072 42.386773 268.745387 42.386774 12.284587 0 24.040107-0.078507 35.08224-0.157014 9.867947-0.07168 19.16928-0.13312 27.777707-0.13312 124.972373 0 138.46528-149.251413 138.46528-213.418666 0-87.528107-38.301013-190.764373-146.240854-193.65888a1804.8 1804.8 0 0 0-48.667306-0.679254c-122.555733 0-214.586027 13.868373-273.537707 41.22624-40.79616 18.930347-63.50848 70.2464-77.079893 100.908374l-2.041174 4.594346c-11.564373 30.450347-30.62784 44.94336-43.554133 53.7088 13.114027 8.492373 31.860053 22.572373 43.779413 52.585814z" fill="#80E200" p-id="3055"></path><path d="M78.322347 483.549867c6.85056 7.437653 36.952747 10.40384 42.932906 21.865813 32.580267 19.69152 63.085227 72.925867 139.874987 93.177173 99.437227 26.221227 252.040533 17.26464 333.687467 17.26464 147.206827 0 143.592107-107.035307 104.68352-132.31104H78.322347v0.003414z" fill="#96FF00" p-id="3056"></path><path d="M468.637013 637.80864h-0.01024c-59.70944 0-146.722133-2.013867-212.718933-19.41504-57.6-15.189333-91.907413-47.742293-116.96128-71.509333-10.67008-10.123947-19.88608-18.865493-28.28288-23.944534a20.48 20.48 0 0 1-6.478507-6.212266c-2.80576-1.774933-10.113707-4.194987-14.61248-5.686614-10.185387-3.372373-19.807573-6.557013-26.309973-13.6192a20.473173 20.473173 0 0 1 15.06304-34.3552l621.175467-0.003413c3.959467 0 7.8336 1.14688 11.158186 3.304107 26.58304 17.268053 38.853973 56.528213 28.545707 91.323733-7.007573 23.64416-35.095893 78.639787-144.387413 78.639787-14.844587 0-32.47104 0.3072-51.12832 0.631466-22.736213 0.39936-48.50688 0.846507-75.052374 0.846507z m-315.644586-133.7856c4.67968 4.164267 9.355947 8.605013 14.144853 13.144747 24.25856 23.016107 51.756373 49.107627 99.211947 61.620906 61.395627 16.18944 144.848213 18.06336 202.277546 18.06336h0.01024c26.187093 0 51.766613-0.447147 74.33216-0.83968 18.845013-0.32768 36.642133-0.638293 51.841707-0.638293 57.51808 0 95.82592-17.974613 105.1136-49.31584 4.870827-16.4352 0.208213-33.49504-7.717547-42.031787H152.992427z" fill="#80E200" p-id="3057"></path><path d="M78.322347 483.549867c6.2464-4.952747 36.352-8.915627 41.745066-21.12512 32.03072-19.780267 62.917973-73.2672 140.356267-93.723307 99.59424-26.313387 252.552533-17.4592 334.394027-17.4592 155.337387 0 143.592107 105.54368 104.68352 132.304213H78.322347z" fill="#96FF00" p-id="3058"></path><path d="M699.501227 504.029867H78.322347a20.48 20.48 0 0 1-12.724907-36.52608c5.116587-4.058453 11.526827-6.089387 19.64032-8.66304 4.57728-1.450667 13.789867-4.375893 17.073493-6.621867a20.45952 20.45952 0 0 1 6.99392-7.215787c8.103253-5.003947 17.09056-13.581653 27.497814-23.514453 25.26208-24.108373 59.859627-57.122133 118.388053-72.584533 66.389333-17.54112 154.170027-19.56864 214.418773-19.56864 26.323627 0 51.879253 0.433493 74.420907 0.8192 18.527573 0.314027 36.027733 0.6144 50.783573 0.6144 107.021653 0 137.570987 46.885547 146.254507 74.83392 10.830507 34.860373-2.051413 75.625813-29.96224 94.825813a20.534613 20.534613 0 0 1-11.605333 3.601067z m-547.157334-40.96H692.087467c9.32864-9.755307 15.127893-28.38528 9.867946-45.315414-9.086293-29.252267-48.13824-46.0288-107.137706-46.0288-15.107413 0-32.774827-0.300373-51.483307-0.621226-22.381227-0.382293-47.745707-0.812373-73.721173-0.812374-57.965227 0-142.175573 1.887573-203.956907 18.210134-48.339627 12.76928-76.090027 39.24992-100.570453 62.614186a682.775893 682.775893 0 0 1-12.741974 11.953494z" fill="#80E200" p-id="3059"></path><path d="M859.948373 763.51488s-213.79072-79.68768-144.534186-79.68768-147.585707 73.888427-147.585707 73.888427 13.74208-226.085547 31.11936-162.082134c17.36704 64.003413-115.882667-117.531307-115.882667-117.531306s223.535787-63.228587 163.775147-20.483414c-59.757227 42.738347 75.97056-146.530987 75.97056-146.530986s124.699307 191.24224 70.089387 149.428906c-54.606507-41.813333 162.829653 26.975573 162.829653 26.975574s-141.417813 175.49312-120.45312 112.827733c20.97152-62.665387 24.671573 163.19488 24.671573 163.19488z" fill="#FCEE44" p-id="3060"></path><path d="M859.948373 783.99488a20.4288 20.4288 0 0 1-7.150933-1.29024c-4.15744-1.549653-94.90432-35.467947-139.342507-59.61728-45.902507 22.207147-134.946133 52.630187-139.01824 54.016a20.48 20.48 0 0 1-27.050666-20.630187c0.262827-4.3008 6.045013-98.198187 15.09376-148.063573-35.20512-35.628373-93.25568-114.558293-95.921494-118.186667a20.486827 20.486827 0 0 1 10.93632-31.82592c4.1984-1.18784 96.27648-27.142827 146.998614-34.26304 24.58624-45.236907 79.18592-121.511253 81.677653-124.982613a20.23424 20.23424 0 0 1 17.097387-8.54016 20.483413 20.483413 0 0 1 16.704853 9.291093c2.37568 3.64544 54.30272 83.43552 76.3392 129.184427 49.916587 8.690347 141.4144 37.55008 145.599147 38.877867a20.483413 20.483413 0 0 1 9.772373 32.375466c-2.78528 3.46112-63.586987 78.772907-100.171093 113.21344 7.205547 49.95072 8.84736 145.257813 8.915626 149.623467a20.493653 20.493653 0 0 1-20.48 20.81792z m-111.506773-88.992427c27.26912 13.206187 64.754347 28.398933 90.24512 38.396587-0.89088-27.794773-2.65216-69.021013-5.874347-99.2768a22.54848 22.54848 0 0 1-15.588693-9.263787c-8.021333-11.144533-3.355307-25.088-1.365333-31.040853 2.065067-6.178133 8.35584-24.968533 26.344106-24.968533 5.126827 0 9.270613 1.406293 12.629334 3.672746 21.159253-21.722453 47.872-53.067093 65.641813-74.3936-26.30656-7.850667-65.348267-19.032747-95.030613-25.511253-0.58368 1.4336-1.324373 2.843307-2.239147 4.225707-4.20864 6.33856-11.342507 10.123947-19.080533 10.12736h-0.01024c-9.1136 0-17.073493-5.154133-23.661227-10.19904-5.311147-4.06528-21.466453-16.4352-15.622827-33.67936a22.54848 22.54848 0 0 1 7.35232-10.48576c-14.291627-26.89024-35.560107-61.51168-50.182826-84.739414-15.291733 22.060373-37.440853 54.75328-53.01248 80.919894 4.03456 3.222187 6.22592 7.19872 7.400106 10.850986 5.748053 17.916587-11.236693 30.061227-17.629866 34.63168-9.90208 7.082667-17.2032 10.10688-24.405334 10.10688-8.062293 0-15.373653-3.9936-19.5584-10.683733a23.364267 23.364267 0 0 1-2.676053-6.017707c-29.999787 5.62176-68.594347 15.383893-94.580053 22.268587 18.203307 23.917227 43.1104 55.637333 62.624426 77.441707 3.362133-2.256213 7.468373-3.652267 12.516694-3.652267 18.8416 0 24.25856 19.968 26.04032 26.525013 2.505387 9.22624 4.447573 21.03296-2.802347 30.5152a22.81472 22.81472 0 0 1-15.407787 8.820054c-4.43392 30.0032-7.959893 70.765227-10.06592 98.464426 25.736533-9.222827 63.327573-23.149227 91.04384-35.341653-0.67584-3.33824-0.610987-6.990507 0.525654-10.963627 5.266773-18.418347 26.44992-18.418347 33.409706-18.418346 7.089493 0 28.668587 0 33.437014 18.766506 1.215147 4.8128 0.897707 9.096533-0.416427 12.9024z" fill="#FFE600" p-id="3061"></path><path d="M712.88832 513.733973a15.13472 6.478507 90 1 0 12.957013 0 15.13472 6.478507 90 1 0-12.957013 0Z" fill="#FFFFFF" p-id="3062"></path><path d="M704.150059 540.137733a15.131307 6.48192 18.01 1 0-28.779823-9.356685 15.131307 6.48192 18.01 1 0 28.779823 9.356685Z" fill="#FFFFFF" p-id="3063"></path><path d="M736.603122 540.024797a6.48192 15.127893 71.994 1 0 28.773984-9.352566 6.48192 15.127893 71.994 1 0-28.773984 9.352566Z" fill="#FFFFFF" p-id="3064"></path><path d="M730.914383 556.611953a15.131307 6.48192 54.027 1 0 17.776378 24.491348 15.131307 6.48192 54.027 1 0-17.776378-24.491348Z" fill="#FFFFFF" p-id="3065"></path><path d="M693.204383 581.065753a6.485333 15.127893 35.966 1 0 17.769377-24.487994 6.485333 15.127893 35.966 1 0-17.769377 24.487994Z" fill="#FFFFFF" p-id="3066"></path><path d="M317.9008 555.793067c44.92288 7.171413 82.824533 11.380053 138.656427 9.157973" fill="#7CBC00" p-id="3067"></path><path d="M427.584853 586.028373c-41.099947 0-73.96352-3.795627-112.909653-10.01472a20.48 20.48 0 0 1-16.994987-23.4496c1.78176-11.168427 12.27776-18.817707 23.453014-16.994986 45.339307 7.236267 81.896107 11.021653 134.611626 8.915626 11.28448-0.416427 20.82816 8.3456 21.27872 19.65056a20.473173 20.473173 0 0 1-19.647146 21.275307c-10.482347 0.41984-20.35712 0.617813-29.791574 0.617813z" fill="#FFFFFF" p-id="3068"></path><path d="M236.694187 533.490347c4.608 2.461013 10.683733 5.952853 16.9984 8.01792" fill="#7CBC00" p-id="3069"></path><path d="M253.699413 561.99168a20.486827 20.486827 0 0 1-6.362453-1.020587c-7.23968-2.362027-13.735253-5.87776-18.479787-8.444586l-1.809066-0.9728a20.48 20.48 0 0 1 19.295573-36.133547l2.000213 1.078613c3.744427 2.024107 7.9872 4.32128 11.711147 5.536427a20.48 20.48 0 0 1 13.110613 25.82528 20.49024 20.49024 0 0 1-19.46624 14.1312z" fill="#FFFFFF" p-id="3070"></path></svg>