<?xml version="1.0" standalone="no"?><!DOCTYPE svg PUBLIC "-//W3C//DTD SVG 1.1//EN" "http://www.w3.org/Graphics/SVG/1.1/DTD/svg11.dtd"><svg t="1491668758986" class="icon" style="" viewBox="0 0 1024 1024" version="1.1" xmlns="http://www.w3.org/2000/svg" p-id="2270" xmlns:xlink="http://www.w3.org/1999/xlink" width="200" height="200"><defs><style type="text/css"></style></defs><path d="M545.55648 604.064427m-351.668907 0a351.668907 351.668907 0 1 0 703.337814 0 351.668907 351.668907 0 1 0-703.337814 0Z" fill="#FF7C1A" p-id="2271"></path><path d="M545.55648 976.213333c-205.202773 0-372.145493-166.94272-372.145493-372.145493S340.353707 231.918933 545.55648 231.918933s372.145493 166.946133 372.145493 372.148907S750.759253 976.213333 545.55648 976.213333z m0-703.3344c-182.616747 0-331.185493 148.568747-331.185493 331.188907 0 182.616747 148.568747 331.185493 331.185493 331.185493s331.185493-148.568747 331.185493-331.185493c0-182.62016-148.568747-331.188907-331.185493-331.188907z" fill="#FF601A" p-id="2272"></path><path d="M710.560427 744.065707m-11.666774 0a11.666773 11.666773 0 1 0 23.333547 0 11.666773 11.666773 0 1 0-23.333547 0Z" fill="#FF661A" p-id="2273"></path><path d="M397.223253 390.72768m-11.66336 0a11.66336 11.66336 0 1 0 23.32672 0 11.66336 11.66336 0 1 0-23.32672 0Z" fill="#FF661A" p-id="2274"></path><path d="M663.88992 627.39456m-11.666773 0a11.666773 11.666773 0 1 0 23.333546 0 11.666773 11.666773 0 1 0-23.333546 0Z" fill="#FF661A" p-id="2275"></path><path d="M550.5536 764.064427m-11.666773 0a11.666773 11.666773 0 1 0 23.333546 0 11.666773 11.666773 0 1 0-23.333546 0Z" fill="#FF661A" p-id="2276"></path><path d="M687.223467 360.727893m-11.666774 0a11.666773 11.666773 0 1 0 23.333547 0 11.666773 11.666773 0 1 0-23.333547 0Z" fill="#FF661A" p-id="2277"></path><path d="M757.224107 717.39392m-11.666774 0a11.666773 11.666773 0 1 0 23.333547 0 11.666773 11.666773 0 1 0-23.333547 0Z" fill="#FF661A" p-id="2278"></path><path d="M670.55616 774.065493m-11.66336 0a11.66336 11.66336 0 1 0 23.32672 0 11.66336 11.66336 0 1 0-23.32672 0Z" fill="#FF661A" p-id="2279"></path><path d="M660.555093 827.398827m-11.66336 0a11.66336 11.66336 0 1 0 23.32672 0 11.66336 11.66336 0 1 0-23.32672 0Z" fill="#FF661A" p-id="2280"></path><path d="M623.889067 884.063573m-11.670187 0a11.670187 11.670187 0 1 0 23.340373 0 11.670187 11.670187 0 1 0-23.340373 0Z" fill="#FF661A" p-id="2281"></path><path d="M357.2224 797.395627m-11.66336 0a11.66336 11.66336 0 1 0 23.32672 0 11.66336 11.66336 0 1 0-23.32672 0Z" fill="#FF661A" p-id="2282"></path><path d="M557.223253 824.064m-11.670186 0a11.670187 11.670187 0 1 0 23.340373 0 11.670187 11.670187 0 1 0-23.340373 0Z" fill="#FF661A" p-id="2283"></path><path d="M747.219627 824.064m-11.670187 0a11.670187 11.670187 0 1 0 23.340373 0 11.670187 11.670187 0 1 0-23.340373 0Z" fill="#FF661A" p-id="2284"></path><path d="M763.890347 770.73408m-11.666774 0a11.666773 11.666773 0 1 0 23.333547 0 11.666773 11.666773 0 1 0-23.333547 0Z" fill="#FF661A" p-id="2285"></path><path d="M837.730987 690.732373m-11.666774 0a11.666773 11.666773 0 1 0 23.333547 0 11.666773 11.666773 0 1 0-23.333547 0Z" fill="#FF661A" p-id="2286"></path><path d="M584.393387 844.905813m-11.666774 0a11.666773 11.666773 0 1 0 23.333547 0 11.666773 11.666773 0 1 0-23.333547 0Z" fill="#FF661A" p-id="2287"></path><path d="M463.885653 824.064m-11.670186 0a11.670187 11.670187 0 1 0 23.340373 0 11.670187 11.670187 0 1 0-23.340373 0Z" fill="#FF661A" p-id="2288"></path><path d="M637.221547 724.063573m-11.666774 0a11.666773 11.666773 0 1 0 23.333547 0 11.666773 11.666773 0 1 0-23.333547 0Z" fill="#FF661A" p-id="2289"></path><path d="M757.224107 584.065707m-11.666774 0a11.666773 11.666773 0 1 0 23.333547 0 11.666773 11.666773 0 1 0-23.333547 0Z" fill="#FF661A" p-id="2290"></path><path d="M570.555733 314.0608m-11.666773 0a11.666773 11.666773 0 1 0 23.333547 0 11.666773 11.666773 0 1 0-23.333547 0Z" fill="#FF661A" p-id="2291"></path><path d="M763.890347 650.724693m-11.66336 0a11.66336 11.66336 0 1 0 23.32672 0 11.66336 11.66336 0 1 0-23.32672 0Z" fill="#FF661A" p-id="2292"></path><path d="M835.577173 494.062933m-11.670186 0a11.670187 11.670187 0 1 0 23.340373 0 11.670187 11.670187 0 1 0-23.340373 0Z" fill="#FF661A" p-id="2293"></path><path d="M291.109547 113.640107c-70.557013 2.095787-131.293867 41.1136-164.33152 97.95584C163.136853 266.369707 226.085547 301.704533 296.635733 299.605333c70.560427-2.106027 131.290453-41.120427 164.338347-97.95584-36.369067-54.780587-99.321173-90.12224-169.864533-88.009386z" fill="#3CFF1A" p-id="2294"></path><path d="M290.679467 320.17408h-0.006827C217.780907 320.170667 150.132053 283.81184 109.714773 222.9248a20.48 20.48 0 0 1-0.641706-21.61664c38.05184-65.46432 105.874773-105.888427 181.428906-108.1344 75.359573-2.239147 145.885867 34.420053 187.53536 97.150293a20.476587 20.476587 0 0 1 0.641707 21.623467c-38.058667 65.45408-105.885013 105.878187-181.43232 108.130987-2.2016 0.064853-4.379307 0.095573-6.567253 0.095573zM151.435947 210.855253C184.753493 253.883733 235.892053 279.210667 290.67264 279.21408h0.01024c1.778347 0 3.55328-0.027307 5.341867-0.078507 56.941227-1.69984 108.48256-30.129493 140.288-76.745386-34.413227-44.438187-87.64416-70.01088-144.5888-68.273494-56.951467 1.6896-108.489387 30.119253-140.288 76.73856z" fill="#00C11B" p-id="2295"></path><path d="M495.875413 353.34144a20.486827 20.486827 0 0 1-20.012373-16.226987l-31.665493-148.96128a20.48 20.48 0 0 1-0.126294-7.881386l20.77696-115.63008a20.476587 20.476587 0 0 1 23.77728-16.534187 20.473173 20.473173 0 0 1 16.534187 23.77728l-20.066987 111.67744 30.83264 145.032533a20.48 20.48 0 0 1-15.776426 24.28928c-1.430187 0.3072-2.863787 0.457387-4.273494 0.457387z" fill="#00C11B" p-id="2296"></path><path d="M435.899733 327.7824c-0.01024-23.691947 13.12768-48.541013 33.51552-53.295787l34.94912-6.51264c20.391253-4.754773 43.35616 9.5744 54.633814 36.765014 5.5296 24.866133 14.3872 42.32192-28.873387 52.589226l-34.9184 6.71744c-51.13856 11.485867-58.774187-12.62592-59.306667-36.263253z" fill="#00C11B" p-id="2297"></path><path d="M806.925653 729.84576a20.401493 20.401493 0 0 1-6.877866-1.19808 20.48 20.48 0 0 1-12.427947-26.13248c2.164053-6.16448 50.128213-148.036267-59.767467-270.29504a20.48 20.48 0 1 1 30.460587-27.385173c126.644907 140.89216 70.35904 304.503467 67.90144 311.3984a20.48 20.48 0 0 1-19.288747 13.612373z" fill="#FFFFFF" p-id="2298"></path><path d="M690.08384 367.37024m-25.40544 0a25.40544 25.40544 0 1 0 50.81088 0 25.40544 25.40544 0 1 0-50.81088 0Z" fill="#FFFFFF" p-id="2299"></path></svg>