<?xml version="1.0" standalone="no"?><!DOCTYPE svg PUBLIC "-//W3C//DTD SVG 1.1//EN" "http://www.w3.org/Graphics/SVG/1.1/DTD/svg11.dtd"><svg t="1491668796011" class="icon" style="" viewBox="0 0 1024 1024" version="1.1" xmlns="http://www.w3.org/2000/svg" p-id="3183" xmlns:xlink="http://www.w3.org/1999/xlink" width="200" height="200"><defs><style type="text/css"></style></defs><path d="M139.103573 560.11776c0 19.206827-15.571627 34.778453-34.781866 34.778453h-1.28c-19.206827 0-34.778453-15.571627-34.778454-34.778453v-132.83328c0-19.206827 15.571627-34.77504 34.781867-34.77504h1.28c19.206827 0 34.778453 15.571627 34.778453 34.77504v132.83328z" fill="#562900" p-id="3184"></path><path d="M104.321707 615.376213h-1.28c-30.470827 0-55.258453-24.79104-55.258454-55.258453v-132.83328c0-30.467413 24.79104-55.25504 55.261867-55.25504h1.28c30.470827 0 55.258453 24.787627 55.258453 55.25504v132.83328c0 30.467413-24.787627 55.258453-55.261866 55.258453z m-1.273174-202.390186A14.31552 14.31552 0 0 0 88.746667 427.281067v132.83328a14.312107 14.312107 0 0 0 14.298453 14.298453h1.28a14.31552 14.31552 0 0 0 14.301867-14.298453V427.281067a14.312107 14.312107 0 0 0-14.298454-14.29504h-1.28z" fill="#8C4E03" p-id="3185"></path><path d="M813.748907 548.580693c0 103.826773-84.165973 187.992747-187.992747 187.992747H293.362347c-103.82336 0-187.989333-84.165973-187.989334-187.992747v-106.386773c0-103.82336 84.165973-187.989333 187.989334-187.989333h332.393813c103.82336 0 187.989333 84.165973 187.989333 187.989333l0.003414 106.386773z" fill="#A05F1F" p-id="3186"></path><path d="M625.75616 757.05344H293.362347c-114.950827 0-208.469333-93.518507-208.469334-208.472747v-106.386773c0-114.950827 93.518507-208.469333 208.469334-208.469333h332.393813c114.950827 0 208.469333 93.518507 208.469333 208.469333v106.386773c0.003413 55.681707-21.684907 108.035413-61.057706 147.41504-39.3728 39.3728-91.723093 61.057707-147.411627 61.057707zM293.362347 274.684587c-92.3648 0-167.509333 75.144533-167.509334 167.509333v106.386773c0 92.368213 75.144533 167.512747 167.509334 167.512747h332.393813c92.368213 0 167.512747-75.147947 167.512747-167.512747l-0.003414-106.386773c0-92.3648-75.144533-167.509333-167.509333-167.509333H293.362347z" fill="#8C4E03" p-id="3187"></path><path d="M713.22624 527.28832m-242.507093 0a242.507093 242.507093 0 1 0 485.014186 0 242.507093 242.507093 0 1 0-485.014186 0Z" fill="#B8F206" p-id="3188"></path><path d="M713.22624 790.275413c-145.00864 0-262.987093-117.97504-262.987093-262.987093 0-145.012053 117.97504-262.987093 262.987093-262.987093S976.213333 382.27968 976.213333 527.28832c0 145.012053-117.97504 262.987093-262.987093 262.987093z m0-485.010773c-122.426027 0-222.027093 99.601067-222.027093 222.027093s99.601067 222.027093 222.027093 222.027094S935.253333 649.71776 935.253333 527.28832s-99.601067-222.02368-222.027093-222.02368z" fill="#8C4E03" p-id="3189"></path><path d="M713.22624 527.31904m-78.455467 0a78.455467 78.455467 0 1 0 156.910934 0 78.455467 78.455467 0 1 0-156.910934 0Z" fill="#E2FF69" p-id="3190"></path><path d="M713.209173 621.687467l-5.59104 12.602026s0.146773 5.853867 5.584214 5.853867c4.33152 0 5.35552-3.515733 5.625173-5.853867l-5.618347-12.602026zM718.830933 420.406613c-0.269653-2.341547-1.297067-5.850453-5.625173-5.850453-5.43744 0-5.584213 5.850453-5.584213 5.850453l5.59104 12.608854 5.618346-12.608854z" fill="#141111" p-id="3191"></path><path d="M807.560533 527.36l12.60544 5.60128s5.850453-0.14336 5.850454-5.587627c0-4.324693-3.51232-5.35552-5.850454-5.625173l-12.60544 5.61152zM606.286507 521.741653c-2.338133 0.27648-5.853867 1.307307-5.853867 5.632 0 5.43744 5.853867 5.5808 5.853867 5.5808l12.60544-5.60128-12.60544-5.61152z" fill="#141111" p-id="3192"></path><path d="M779.922773 594.059947l4.959574 12.868266s4.242773 4.041387 8.086186 0.197974c3.058347-3.058347 1.303893-6.270293-0.16384-8.116907l-12.88192-4.949333zM641.570133 447.76448c-1.850027-1.460907-5.055147-3.218773-8.116906-0.157013-3.846827 3.846827 0.191147 8.086187 0.191146 8.086186l12.87168 4.95616-4.94592-12.885333z" fill="#141111" p-id="3193"></path><path d="M779.936427 460.653227l12.87168-4.95616s4.041387-4.242773 0.191146-8.086187c-3.058347-3.058347-6.26688-1.303893-8.113493 0.157013l-4.949333 12.885334zM633.644373 599.00928c-1.471147 1.8432-3.218773 5.055147-0.16384 8.116907 3.843413 3.846827 8.086187-0.201387 8.086187-0.201387l4.959573-12.868267-12.88192 4.952747z" fill="#141111" p-id="3194"></path><path d="M749.312 614.5024l-0.344747 13.789867s2.37568 5.348693 7.39328 3.269973c4.000427-1.64864 3.60448-5.29408 2.962774-7.560533l-10.011307-9.499307zM677.481813 426.40384c-1.14688-2.061653-3.44064-4.911787-7.441066-3.25632-5.024427 2.082133-2.914987 7.54688-2.914987 7.54688l9.99424 9.509547 0.361813-13.800107z" fill="#141111" p-id="3195"></path><path d="M800.37888 491.264l13.789867 0.341333s5.348693-2.37568 3.26656-7.39328c-1.645227-3.997013-5.290667-3.60448-7.55712-2.95936l-9.499307 10.011307zM612.276907 563.101013c-2.05824 1.143467-4.908373 3.433813-3.252907 7.43424 2.075307 5.02784 7.54688 2.9184 7.54688 2.9184l9.50272-9.997653-13.796693-0.354987z" fill="#141111" p-id="3196"></path><path d="M800.372053 563.456l9.499307 9.997653s5.471573 2.106027 7.543467-2.914986c1.662293-4.007253-1.191253-6.294187-3.249494-7.441067l-13.79328 0.3584zM616.574293 481.24928c-2.269867-0.641707-5.90848-1.041067-7.563946 2.95936-2.075307 5.0176 3.273387 7.39328 3.273386 7.39328l13.789867-0.344747-9.499307-10.007893z" fill="#141111" p-id="3197"></path><path d="M749.33248 440.203947l9.997653-9.506134s2.102613-5.464747-2.921813-7.54688c-3.997013-1.655467-6.28736 1.194667-7.43424 3.25632l0.3584 13.796694zM667.12576 624.00512c-0.648533 2.266453-1.04448 5.905067 2.952533 7.560533 5.024427 2.075307 7.396693-3.273387 7.396694-3.273386l-0.344747-13.789867-10.00448 9.50272z" fill="#141111" p-id="3198"></path><path d="M178.701653 533.405013a20.486827 20.486827 0 0 1-20.25472-17.6128c-0.52224-3.689813-12.253867-91.040427 33.8432-151.364266 23.002453-30.102187 55.86944-48.03584 97.686187-53.302614a20.48 20.48 0 0 1 5.116587 40.64256c-30.95552 3.898027-53.937493 16.175787-70.25664 37.533014-35.79904 46.848-25.934507 120.019627-25.832107 120.753493a20.48 20.48 0 0 1-20.302507 23.350613z" fill="#FFFFFF" p-id="3199"></path><path d="M366.04928 326.36928m-22.55872 0a22.55872 22.55872 0 1 0 45.11744 0 22.55872 22.55872 0 1 0-45.11744 0Z" fill="#FFFFFF" p-id="3200"></path></svg>