<?xml version="1.0" standalone="no"?><!DOCTYPE svg PUBLIC "-//W3C//DTD SVG 1.1//EN" "http://www.w3.org/Graphics/SVG/1.1/DTD/svg11.dtd"><svg t="1491668798908" class="icon" style="" viewBox="0 0 1024 1024" version="1.1" xmlns="http://www.w3.org/2000/svg" p-id="3313" xmlns:xlink="http://www.w3.org/1999/xlink" width="200" height="200"><defs><style type="text/css"></style></defs><path d="M739.87072 131.269973c-73.629013 50.722133-146.773333 138.76224-198.843733 248.439467-54.6816 115.196587-74.236587 229.195093-60.460374 313.821867 73.63584-50.722133 146.776747-138.758827 198.833494-248.44288 54.685013-115.18976 74.24-229.184853 60.470613-313.818454z" fill="#5DA500" p-id="3314"></path><path d="M480.566613 714.01472a20.462933 20.462933 0 0 1-20.210346-17.189547c-15.015253-92.24192 7.645867-211.02592 62.173866-325.894826 51.469653-108.417707 126.457173-201.915733 205.725014-256.52224a20.476587 20.476587 0 0 1 31.829333 13.57824c15.008427 92.248747-7.652693 211.032747-62.184107 325.891413-51.452587 108.41088-126.43328 201.91232-205.714773 256.525653a20.514133 20.514133 0 0 1-11.618987 3.611307z m242.70848-544.498347c-62.982827 52.09088-121.524907 130.034347-163.751253 218.978987-44.24704 93.211307-66.225493 188.27264-62.368427 266.799787 62.99648-52.094293 121.524907-130.03776 163.7376-218.9824 44.253867-93.207893 66.239147-188.269227 62.38208-266.796374z" fill="#167203" p-id="3315"></path><path d="M852.483413 292.877653c-88.630613 25.255253-190.870187 85.67808-281.371306 172.78976-95.051093 91.501227-156.491093 192.53248-175.397547 276.11136 88.634027-25.258667 190.866773-85.684907 281.367893-172.796586 95.061333-91.501227 156.49792-192.525653 175.40096-276.104534z" fill="#5DA500" p-id="3316"></path><path d="M395.717973 762.25536a20.48 20.48 0 0 1-19.97824-25.002667c20.57216-90.948267 86.606507-195.31776 181.169494-286.344533 89.20064-85.858987 194.88768-150.64064 289.959253-177.732267a20.48 20.48 0 0 1 25.593173 24.2176c-20.568747 90.948267-86.606507 195.314347-181.172906 286.34112-89.197227 85.855573-194.880853 150.64064-289.95584 177.73568a20.435627 20.435627 0 0 1-5.614934 0.785067zM821.920427 324.625067c-79.005013 29.996373-163.396267 85.326507-236.602027 155.794773-76.305067 73.454933-132.655787 155.224747-159.034027 229.60128 79.005013-29.999787 163.38944-85.32992 236.5952-155.798187 76.31872-73.458347 132.666027-155.21792 159.040854-229.597866z" fill="#167203" p-id="3317"></path><path d="M437.62688 940.653227c-146.41152-16.64-267.533653-291.898027-211.74272-534.975147 52.5312-228.9152 166.618453-334.690987 310.142293-330.830507 59.48416 1.604267 1.348267 55.784107 50.885974 155.521707 48.407893 97.45408 132.570453 243.944107 117.98528 402.735787-18.080427 196.969813-120.855893 324.181333-267.270827 307.54816z" fill="#FFF200" p-id="3318"></path><path d="M462.953813 962.59072c-9.065813 0-18.363733-0.53248-27.63776-1.5872-53.766827-6.109867-105.05216-41.64608-148.319573-102.761813-84.012373-118.678187-116.59264-302.390613-81.073493-457.14432 51.326293-223.658667 165.881173-346.832213 322.56-346.832214 2.696533 0 5.376 0.037547 8.093013 0.109227 10.97728 0.29696 26.83904 2.048 37.874347 13.79328 12.458667 13.264213 11.84768 30.593707 11.137706 50.65728-0.88064 24.75008-2.07872 58.647893 19.67104 102.434133 4.519253 9.10336 9.355947 18.640213 14.39744 28.576427 50.387627 99.341653 119.394987 235.390293 105.639254 385.140053-18.271573 199.017813-121.248427 327.615147-262.341974 327.615147zM528.4864 95.225173c-137.608533 0-235.342507 108.936533-282.637653 315.0336-38.188373 166.38976 9.939627 333.001387 74.581333 424.31488 35.816107 50.59584 78.260907 81.042773 119.514453 85.72928 67.485013 7.65952 127.27296-18.773333 171.216214-75.687253 39.91552-51.698347 65.28-125.487787 73.352533-213.387947 12.673707-137.997653-53.248-267.967147-101.382827-362.868053a4077.492907 4077.492907 0 0 1-14.554453-28.883627c-26.368-53.08416-24.89344-94.621013-23.92064-122.105173 0.259413-7.318187 0.607573-17.093973-0.303787-20.964693-1.21856-0.37888-3.857067-0.95232-8.874666-1.088854a265.980587 265.980587 0 0 0-6.990507-0.09216z" fill="#FFDA00" p-id="3319"></path><path d="M445.216386 928.290715a34.307413 29.979307 6.486 1 0 68.175656 7.75076 34.307413 29.979307 6.486 1 0-68.175656-7.75076Z" fill="#563C08" p-id="3320"></path><path d="M480.395947 975.86176c-1.993387 0-4.017493-0.11264-6.01088-0.341333-12.386987-1.406293-23.630507-7.028053-31.658667-15.827627-8.492373-9.311573-12.427947-21.009067-11.072853-32.938667 2.481493-21.824853 22.500693-38.27712 46.57152-38.27712 1.993387 0 4.017493 0.11264 6.01088 0.341334 12.386987 1.406293 23.630507 7.028053 31.658666 15.824213 8.492373 9.314987 12.427947 21.009067 11.06944 32.94208-2.47808 21.82144-22.500693 38.27712-46.568106 38.27712z m-2.17088-60.074667c-10.16832 0-18.527573 6.0416-19.43552 14.052694-0.453973 3.98336 1.006933 8.04864 4.113066 11.451733 3.570347 3.915093 8.74496 6.437547 14.568107 7.09632 11.246933 1.256107 21.37088-5.116587 22.367573-13.888853 0.453973-3.98336-1.006933-8.04864-4.109653-11.44832-3.570347-3.915093-8.74496-6.437547-14.568107-7.09632a25.821867 25.821867 0 0 0-2.935466-0.167254z" fill="#967229" p-id="3321"></path><path d="M294.242987 622.87872a20.49024 20.49024 0 0 1-20.3264-18.182827c-12.87168-113.851733 8.116907-230.843733 57.582933-320.9728a20.48 20.48 0 0 1 35.904853 19.705174c-45.489493 82.885973-64.72704 191.01696-52.7872 296.666453a20.48 20.48 0 0 1-20.374186 22.784z" fill="#FFFFFF" p-id="3322"></path><path d="M434.674347 178.91328c-7.717547 3.03104-47.336107 43.32544-50.74944 49.271467" fill="#FF2C2C" p-id="3323"></path><path d="M383.90784 248.66816a20.476587 20.476587 0 0 1-17.742507-30.675627c4.519253-7.87456 47.332693-52.763307 61.023574-58.139306a20.48 20.48 0 0 1 16.46592 37.46816c-7.918933 5.379413-37.393067 35.116373-42.407254 41.796266a20.483413 20.483413 0 0 1-17.339733 9.550507z" fill="#FFFFFF" p-id="3324"></path></svg>