<?xml version="1.0" standalone="no"?><!DOCTYPE svg PUBLIC "-//W3C//DTD SVG 1.1//EN" "http://www.w3.org/Graphics/SVG/1.1/DTD/svg11.dtd"><svg t="1491668765008" class="icon" style="" viewBox="0 0 1024 1024" version="1.1" xmlns="http://www.w3.org/2000/svg" p-id="2412" xmlns:xlink="http://www.w3.org/1999/xlink" width="200" height="200"><defs><style type="text/css"></style></defs><path d="M825.68192 258.2016c-63.566507-68.901547-155.153067-72.07936-312.272213-84.165973v-0.262827c-0.580267 0.047787-1.13664 0.08192-1.72032 0.129707-0.58368-0.047787-1.143467-0.08192-1.73056-0.129707v0.262827c-156.43648 12.090027-248.077653 15.271253-311.64416 84.165973 0 0-140.3904 145.025707-7.601494 339.203413l189.323947 276.548267c36.13696 52.794027 82.827947 79.940267 129.921707 81.62304v0.150187c0.576853-0.006827 1.150293-0.075093 1.73056-0.075094 0.570027 0.017067 1.140053 0.075093 1.72032 0.075094v-0.150187c47.377067-1.6896 94.409387-28.822187 130.56-81.62304l189.320533-276.548267c132.78208-194.177707-7.60832-339.203413-7.60832-339.203413z" fill="#FF1224" p-id="2413"></path><path d="M513.409707 976.206507c-0.597333 0-1.19808-0.02048-1.788587-0.054614a22.818133 22.818133 0 0 1-5.041493-0.22528c-54.60992-2.89792-105.458347-34.914987-143.438507-90.405546l-189.323947-276.544854c-73.19552-107.035307-66.874027-200.454827-48.684373-259.976533 19.165867-62.706347 54.838613-101.23264 58.25536-104.820053 65.488213-70.87104 153.603413-77.550933 299.54048-88.620374 7.338667-0.556373 14.830933-1.1264 22.4768-1.713493 2.02752-0.484693 4.13696-0.65536 6.2464-0.484693l0.034133 0.003413 0.023894-0.003413a20.548267 20.548267 0 0 1 6.505813 0.50176c7.529813 0.576853 14.906027 1.13664 22.135467 1.67936 146.363733 11.0592 234.738347 17.732267 300.260693 88.63744 3.423573 3.597653 39.089493 42.120533 58.251947 104.820053 18.189653 59.521707 24.51456 152.941227-48.67072 259.966293l-189.32736 276.555094c-37.993813 55.49056-89.07776 87.507627-144.09728 90.402133a19.7632 19.7632 0 0 1-3.35872 0.283307z m-1.723734-781.765974l-0.146773 0.01024c-8.704 0.672427-17.206613 1.317547-25.511253 1.949014-136.000853 10.315093-218.09152 16.544427-272.657067 75.687253-0.109227 0.12288-0.221867 0.238933-0.33792 0.3584-5.195093 5.4272-126.76096 135.949653-5.410133 313.398613l189.31712 276.538027c31.06816 45.387093 71.46496 71.212373 113.752746 72.727893 0.334507 0.013653 0.662187 0.03072 0.99328 0.06144a15.940267 15.940267 0 0 1 0.996694-0.06144c42.7008-1.522347 83.32288-27.35104 114.39104-72.727893l189.320533-276.548267c121.340587-177.442133-0.22528-307.964587-5.461333-313.432746a27.136 27.136 0 0 1-0.300374-0.31744c-54.592853-59.173547-136.936107-65.39264-273.363626-75.700907-8.280747-0.628053-16.75264-1.266347-25.429334-1.931947a1.160533 1.160533 0 0 1-0.1536-0.01024z" fill="#C60000" p-id="2414"></path><path d="M501.12512 282.825387l71.010987-37.59104 148.630186-20.944214-86.493866-44.178773-15.264427-50.537813-117.88288 28.142933-117.889707-28.142933-15.250773 50.537813L281.50784 224.290133l148.606293 16.479574z" fill="#99FF15" p-id="2415"></path><path d="M501.12512 299.892053a17.042773 17.042773 0 0 1-8.697173-2.382506l-67.85024-40.185174-144.954027-16.069973a17.07008 17.07008 0 0 1-5.881173-32.16384l80.001706-40.871253 13.154987-43.578027a17.0496 17.0496 0 0 1 20.302507-11.666773l113.926826 27.194026 113.916587-27.194026a17.066667 17.066667 0 0 1 20.299093 11.66336l13.165227 43.578026 80.018773 40.874667a17.066667 17.066667 0 0 1-5.382826 32.098987l-145.667414 20.527786-68.369066 36.194987a17.032533 17.032533 0 0 1-7.983787 1.979733z m-161.1776-86.29248l92.050773 10.205867a17.158827 17.158827 0 0 1 6.816427 2.276693l62.784853 37.184854 62.55616-33.11616a17.107627 17.107627 0 0 1 5.608107-1.815894l95.156907-13.410986-38.403414-19.616427a17.073493 17.073493 0 0 1-8.574293-10.263893l-10.615467-35.13344-102.229333 24.405333a16.9984 16.9984 0 0 1-7.92576 0l-102.239573-24.405333-10.601814 35.130026a17.05984 17.05984 0 0 1-8.574293 10.267307l-35.80928 18.292053z" fill="#1AAD00" p-id="2416"></path><path d="M457.23648 477.866667c-0.361813-3.229013-1.798827-8.075947-7.755093-8.075947-7.502507 0-7.707307 8.075947-7.707307 8.075947l7.72096 17.390933 7.74144-17.390933zM516.355413 343.282347c-0.3584-3.229013-1.795413-8.075947-7.755093-8.075947-7.502507 0-7.707307 8.075947-7.707307 8.075947l7.727787 17.390933 7.734613-17.390933zM582.229333 477.866667c-0.361813-3.229013-1.795413-8.075947-7.755093-8.075947-7.502507 0-7.707307 8.075947-7.707307 8.075947l7.727787 17.390933 7.734613-17.390933zM640.054613 323.638613c-0.365227-3.229013-1.798827-8.075947-7.755093-8.075946-7.502507 0-7.707307 8.075947-7.707307 8.075946l7.727787 17.390934 7.734613-17.390934zM707.2256 459.851093c-0.361813-3.229013-1.795413-8.075947-7.75168-8.075946-7.502507 0-7.707307 8.075947-7.707307 8.075946l7.727787 17.390934 7.7312-17.390934zM332.240213 459.851093c-0.361813-3.229013-1.798827-8.075947-7.755093-8.075946-7.502507 0-7.707307 8.075947-7.707307 8.075946l7.724374 17.390934 7.738026-17.390934zM207.243947 441.828693c-0.3584-3.229013-1.795413-8.075947-7.75168-8.075946-7.502507 0-7.71072 8.075947-7.71072 8.075946l7.724373 17.394347 7.738027-17.394347zM832.218453 441.832107c-0.36864-3.229013-1.792-8.075947-7.755093-8.075947-7.499093 0-7.707307 8.075947-7.707307 8.075947l7.7312 17.390933 7.7312-17.390933zM268.960427 305.619627c-0.3584-3.229013-1.798827-8.075947-7.755094-8.075947-7.502507 0-7.707307 8.075947-7.707306 8.075947l7.727786 17.38752 7.734614-17.38752zM392.656213 323.638613c-0.3584-3.229013-1.798827-8.075947-7.755093-8.075946-7.502507 0-7.707307 8.075947-7.707307 8.075946l7.724374 17.38752 7.738026-17.38752zM763.7504 305.619627c-0.372053-3.229013-1.792-8.075947-7.755093-8.075947-7.502507 0-7.707307 8.075947-7.707307 8.075947l7.727787 17.38752 7.734613-17.38752zM516.355413 611.76832c-0.3584-3.2256-1.795413-8.07936-7.755093-8.07936-7.502507 0-7.707307 8.07936-7.707307 8.07936l7.727787 17.38752 7.734613-17.38752zM519.959893 860.42624c-0.3584-3.2256-1.795413-8.07936-7.75168-8.07936-7.502507 0-7.71072 8.07936-7.71072 8.07936l7.727787 17.38752 7.734613-17.38752zM640.054613 592.121173c-0.365227-3.229013-1.798827-8.07936-7.755093-8.07936-7.502507 0-7.707307 8.07936-7.707307 8.07936l7.727787 17.394347 7.734613-17.394347zM268.960427 574.102187c-0.3584-3.232427-1.798827-8.082773-7.755094-8.082774-7.502507 0-7.707307 8.082773-7.707306 8.082774l7.727786 17.384106 7.734614-17.384106zM392.656213 592.121173c-0.3584-3.229013-1.798827-8.07936-7.755093-8.07936-7.502507 0-7.707307 8.07936-7.707307 8.07936l7.724374 17.38752 7.738026-17.38752zM763.7504 574.102187c-0.372053-3.232427-1.792-8.082773-7.755093-8.082774-7.502507 0-7.707307 8.082773-7.707307 8.082774l7.727787 17.384106 7.734613-17.384106zM467.08736 737.938773c-0.3584-3.229013-1.795413-8.072533-7.755093-8.072533-7.502507 0-7.703893 8.072533-7.703894 8.072533l7.724374 17.394347 7.734613-17.394347zM580.42368 739.741013c-0.36864-3.229013-1.795413-8.072533-7.755093-8.072533-7.502507 0-7.707307 8.072533-7.707307 8.072533l7.724373 17.394347 7.738027-17.394347zM360.956587 703.70304c-0.361813-3.229013-1.795413-8.072533-7.755094-8.072533-7.502507 0-7.703893 8.072533-7.703893 8.072533l7.724373 17.394347 7.734614-17.394347zM690.158933 701.904213c-0.361813-3.232427-1.798827-8.072533-7.748266-8.072533-7.502507 0-7.717547 8.072533-7.717547 8.072533l7.734613 17.390934 7.7312-17.390934z" fill="#FFC200" p-id="2417"></path><path d="M501.90336 216.7296a20.49024 20.49024 0 0 1-19.903147-15.721813c-0.785067-3.290453-19.05664-81.2544-0.38912-139.042134a20.48 20.48 0 0 1 38.976854 12.591787c-12.591787 38.980267-3.36896 97.621333 1.24928 116.923733a20.48 20.48 0 0 1-19.933867 25.248427z" fill="#1AAD00" p-id="2418"></path><path d="M743.062187 604.613973a20.48 20.48 0 0 1-14.728534-34.710186c0.692907-0.720213 69.096107-73.065813 65.051307-174.185814a20.48 20.48 0 0 1 19.643733-21.282133c11.28448-0.48128 20.831573 8.342187 21.282134 19.643733 4.765013 119.104853-73.22624 200.891733-76.550827 204.315307a20.411733 20.411733 0 0 1-14.697813 6.219093z" fill="#FFFFFF" p-id="2419"></path><path d="M788.957867 321.723733m-26.14272 0a26.14272 26.14272 0 1 0 52.28544 0 26.14272 26.14272 0 1 0-52.28544 0Z" fill="#FFFFFF" p-id="2420"></path></svg>