<?xml version="1.0" standalone="no"?><!DOCTYPE svg PUBLIC "-//W3C//DTD SVG 1.1//EN" "http://www.w3.org/Graphics/SVG/1.1/DTD/svg11.dtd"><svg t="1491668746927" class="icon" style="" viewBox="0 0 1024 1024" version="1.1" xmlns="http://www.w3.org/2000/svg" p-id="2000" xmlns:xlink="http://www.w3.org/1999/xlink" width="200" height="200"><defs><style type="text/css"></style></defs><path d="M505.115307 68.266667l-50.056534 147.899733h113.247574z" fill="#52E846" p-id="2001"></path><path d="M568.306347 236.6464h-113.247574a20.473173 20.473173 0 0 1-19.397973-27.04384l50.056533-147.899733a20.473173 20.473173 0 0 1 38.232747-1.481387l63.194453 147.899733a20.486827 20.486827 0 0 1-18.838186 28.525227z m-84.69504-40.96h53.674666l-29.952-70.096213-23.722666 70.096213z" fill="#4EA520" p-id="2002"></path><path d="M607.740587 119.11168l-65.21856 188.573013-116.783787-19.411626z" fill="#52E846" p-id="2003"></path><path d="M542.53568 328.168107a20.548267 20.548267 0 0 1-3.36896-0.279894l-116.7872-19.41504a20.48 20.48 0 0 1-10.584747-35.20512l182.002347-169.157973a20.48 20.48 0 0 1 33.30048 21.695147l-65.215147 188.573013a20.49024 20.49024 0 0 1-19.346773 13.789867z m-72.331947-53.265067l58.61376 9.745067 32.733867-94.64832-91.347627 84.903253z" fill="#4EA520" p-id="2004"></path><path d="M413.60384 121.88672l65.21856 188.5696 116.783787-19.411627z" fill="#52E846" p-id="2005"></path><path d="M478.808747 330.93632a20.483413 20.483413 0 0 1-19.34336-13.786453l-65.21856-188.566187a20.48 20.48 0 0 1 33.297066-21.695147l182.00576 169.15456a20.486827 20.486827 0 0 1-10.58816 35.20512l-116.780373 19.411627a20.933973 20.933973 0 0 1-3.372373 0.27648z m-19.01568-138.161493l32.733866 94.641493 58.61376-9.741653-91.347626-84.89984z" fill="#4EA520" p-id="2006"></path><path d="M662.34368 163.4816l-65.215147 188.573013-116.790613-19.411626z" fill="#52E846" p-id="2007"></path><path d="M597.142187 372.538027a20.548267 20.548267 0 0 1-3.36896-0.279894l-116.794027-19.41504a20.48 20.48 0 0 1-10.584747-35.20512L648.400213 148.48a20.48 20.48 0 0 1 33.30048 21.695147l-65.211733 188.573013a20.49024 20.49024 0 0 1-19.346773 13.789867z m-72.33536-53.265067l58.620586 9.745067 32.733867-94.651734-91.354453 84.906667z" fill="#4EA520" p-id="2008"></path><path d="M365.069653 182.889813l65.215147 188.576427 116.7872-19.411627z" fill="#52E846" p-id="2009"></path><path d="M430.271147 391.94624a20.48 20.48 0 0 1-19.34336-13.789867l-65.215147-188.576426a20.48 20.48 0 0 1 33.297067-21.695147l182.002346 169.1648a20.483413 20.483413 0 0 1-10.58816 35.20512l-116.7872 19.411627a20.415147 20.415147 0 0 1-3.365546 0.279893z m-19.01568-138.16832l32.733866 94.64832 58.617174-9.741653-91.35104-84.906667z" fill="#4EA520" p-id="2010"></path><path d="M789.13536 712.577707c0 134.37952-120.449707 243.155627-267.434667 243.155626h-15.981226c-146.9952 0-267.444907-108.776107-267.444907-243.155626V601.9072c0-134.382933 120.449707-243.585707 267.441493-243.585707h15.977814c146.9952 0 267.43808 109.202773 267.43808 243.585707l0.003413 110.670507z" fill="#FFEC00" p-id="2011"></path><path d="M521.704107 976.213333h-15.981227c-158.76096 0-287.924907-118.265173-287.924907-263.635626V601.9072c0-145.605973 129.160533-264.065707 287.921494-264.065707h15.977813c158.757547 0 287.91808 118.459733 287.91808 264.065707l0.003413 110.670507c-0.003413 145.370453-129.15712 263.635627-287.914666 263.635626z m-15.98464-597.41184c-136.174933 0-246.961493 100.08576-246.961494 223.105707v110.670507c0 122.784427 110.789973 222.675627 246.964907 222.675626h15.981227c136.17152 0 246.954667-99.894613 246.954666-222.675626l-0.003413-110.670507c0-123.019947-110.783147-223.105707-246.95808-223.105707h-15.977813z" fill="#4EA520" p-id="2012"></path><path d="M654.189227 941.912747a20.432213 20.432213 0 0 1-13.81376-5.362347L232.605013 563.756373a20.483413 20.483413 0 0 1 27.63776-30.235306l407.77728 372.794026a20.49024 20.49024 0 0 1 1.297067 28.93824 20.452693 20.452693 0 0 1-15.127893 6.659414zM779.844267 770.6624a20.432213 20.432213 0 0 1-13.81376-5.362347L371.954347 405.036373a20.48 20.48 0 1 1 27.63776-30.231893l394.079573 360.260267a20.49024 20.49024 0 0 1 1.297067 28.93824 20.442453 20.442453 0 0 1-15.12448 6.659413z" fill="#4EA520" p-id="2013"></path><path d="M369.783467 941.912747a20.48 20.48 0 0 1-13.824-35.597654l407.79776-372.794026a20.48 20.48 0 1 1 27.634346 30.235306L383.597227 936.5504a20.40832 20.40832 0 0 1-13.81376 5.362347zM244.14208 770.6624a20.483413 20.483413 0 0 1-13.824-35.597653l394.079573-360.260267a20.486827 20.486827 0 0 1 27.641174 30.231893L257.95584 765.300053a20.40832 20.40832 0 0 1-13.81376 5.362347z" fill="#4EA520" p-id="2014"></path><path d="M545.634987 913.445547a20.48 20.48 0 0 1-3.08224-40.72448c3.884373-0.610987 95.66208-15.957333 143.803733-106.861227a20.483413 20.483413 0 0 1 36.1984 19.172693c-58.0608 109.622613-169.15456 127.47776-173.85472 128.18432-1.024 0.1536-2.051413 0.228693-3.065173 0.228694z" fill="#FFFFFF" p-id="2015"></path><path d="M728.272213 714.666667m-24.66816 0a24.66816 24.66816 0 1 0 49.33632 0 24.66816 24.66816 0 1 0-49.33632 0Z" fill="#FFFFFF" p-id="2016"></path></svg>