<?xml version="1.0" standalone="no"?><!DOCTYPE svg PUBLIC "-//W3C//DTD SVG 1.1//EN" "http://www.w3.org/Graphics/SVG/1.1/DTD/svg11.dtd"><svg t="1491668808175" class="icon" style="" viewBox="0 0 1024 1024" version="1.1" xmlns="http://www.w3.org/2000/svg" p-id="3437" xmlns:xlink="http://www.w3.org/1999/xlink" width="200" height="200"><defs><style type="text/css"></style></defs><path d="M385.30048 381.75744c-15.506773 61.917867-82.66752 98.41664-150.770347 81.360213-68.10624-17.05984-110.127787-80.913067-94.621013-142.824106l5.618347-22.41536c15.506773-61.91104 82.66752-98.423467 150.77376-81.363627 68.10624 17.05984 110.127787 80.919893 94.6176 142.830933l-5.618347 22.411947z" fill="#7902AA" p-id="3438"></path><path d="M268.240213 487.79264c-12.929707 0-25.944747-1.61792-38.683306-4.809387-78.609067-19.69152-127.73376-94.90432-109.509974-167.666346l5.618347-22.418774c14.902613-59.501227 71.212373-101.061973 136.92928-101.061973 12.929707 0 25.944747 1.61792 38.683307 4.809387 78.609067 19.69152 127.73376 94.911147 109.509973 167.673173l-5.618347 22.41536c-14.906027 59.501227-71.212373 101.05856-136.92928 101.05856z m-5.649066-254.99648c-46.895787 0-86.86592 28.808533-97.19808 70.055253l-5.618347 22.418774c-12.735147 50.85184 23.02976 103.778987 79.732053 117.978453a118.442667 118.442667 0 0 0 28.73344 3.580587c46.895787 0 86.86592-28.80512 97.194667-70.05184l5.618347-22.41536c12.73856-50.85184-23.02976-103.7824-79.72864-117.98528a118.463147 118.463147 0 0 0-28.73344-3.580587z" fill="#56007A" p-id="3439"></path><path d="M211.531093 282.364587m-14.011733 0a14.011733 14.011733 0 1 0 28.023467 0 14.011733 14.011733 0 1 0-28.023467 0Z" fill="#FFFFFF" p-id="3440"></path><path d="M631.1424 443.33056c-15.510187 61.914453-82.674347 98.423467-150.777173 81.363627-68.102827-17.05984-110.124373-80.919893-94.6176-142.830934l5.618346-22.411946c15.506773-61.91104 82.670933-98.423467 150.77376-81.363627 68.102827 17.05984 110.134613 80.919893 94.624427 142.82752l-5.62176 22.41536z" fill="#7902AA" p-id="3441"></path><path d="M514.075307 549.369173a159.5392 159.5392 0 0 1-38.68672-4.809386c-78.605653-19.694933-127.73376-94.911147-109.509974-167.673174l5.618347-22.41536c14.906027-59.501227 71.212373-101.061973 136.92928-101.061973 12.929707 0 25.944747 1.61792 38.683307 4.809387 37.87776 9.489067 70.116693 31.921493 90.774186 63.167146 21.005653 31.77472 27.661653 68.887893 18.7392 104.506027l-5.618346 22.41536c-14.902613 59.50464-71.212373 101.061973-136.92928 101.061973z m-5.645654-254.99648c-46.895787 0-86.86592 28.808533-97.19808 70.055254l-5.618346 22.411946c-12.735147 50.85184 23.02976 103.7824 79.72864 117.98528 9.489067 2.379093 19.155627 3.584 28.73344 3.584 46.895787 0 86.86592-28.808533 97.201493-70.055253l5.618347-22.41536c6.096213-24.333653 1.416533-49.88928-13.172054-71.959893-15.0016-22.685013-38.63552-39.031467-66.56-46.021974a118.319787 118.319787 0 0 0-28.73344-3.584z" fill="#56007A" p-id="3442"></path><path d="M490.656427 346.27584m-27.815254 0a27.815253 27.815253 0 1 0 55.630507 0 27.815253 27.815253 0 1 0-55.630507 0Z" fill="#FFFFFF" p-id="3443"></path><path d="M878.47936 505.28256c-15.5136 61.917867-82.66752 98.423467-150.77376 81.363627-68.109653-17.053013-110.1312-80.91648-94.624427-142.830934l5.618347-22.411946c15.506773-61.91104 82.66752-98.423467 150.770347-81.363627 68.10624 17.05984 110.1312 80.919893 94.621013 142.830933l-5.61152 22.411947z" fill="#7902AA" p-id="3444"></path><path d="M761.419093 611.324587c-12.929707 0-25.94816-1.621333-38.690133-4.809387-37.881173-9.48224-70.116693-31.91808-90.7776-63.163733-21.00224-31.77472-27.65824-68.887893-18.735787-104.50944l5.62176-22.418774c14.8992-59.501227 71.205547-101.05856 136.925867-101.05856 12.926293 0 25.944747 1.61792 38.683307 4.809387 37.881173 9.489067 70.116693 31.921493 90.774186 63.167147 21.005653 31.77472 27.661653 68.887893 18.735787 104.506026l-5.614933 22.411947c-14.906027 59.50464-71.212373 101.065387-136.922454 101.065387z m-5.65248-254.999894c-46.895787 0-86.86592 28.808533-97.19808 70.055254l-5.62176 22.418773c-6.0928 24.333653-1.41312 49.892693 13.175467 71.963307 14.998187 22.685013 38.632107 39.031467 66.556587 46.01856a118.521173 118.521173 0 0 0 28.740266 3.584c46.88896 0 86.859093-28.808533 97.194667-70.055254l5.614933-22.411946c6.096213-24.337067 1.419947-49.896107-13.16864-71.963307-14.998187-22.685013-38.63552-39.028053-66.56-46.021973a118.15936 118.15936 0 0 0-28.73344-3.587414z" fill="#56007A" p-id="3445"></path><path d="M737.993387 408.231253m-27.815254 0a27.815253 27.815253 0 1 0 55.630507 0 27.815253 27.815253 0 1 0-55.630507 0Z" fill="#FFFFFF" p-id="3446"></path><path d="M454.529707 626.899627c-15.506773 61.92128-82.66752 98.42688-150.766934 81.370453-68.10624-17.05984-110.127787-80.923307-94.6176-142.834347l5.618347-22.408533c15.506773-61.914453 82.664107-98.42688 150.770347-81.370453 68.10624 17.05984 110.12096 80.923307 94.614186 142.830933l-5.618346 22.411947z" fill="#7902AA" p-id="3447"></path><path d="M337.466027 732.945067c-12.926293 0-25.941333-1.621333-38.679894-4.809387-37.881173-9.489067-70.116693-31.924907-90.774186-63.17056-21.00224-31.77472-27.65824-68.887893-18.735787-104.506027l5.618347-22.411946c14.902613-59.50464 71.212373-101.065387 136.936106-101.065387 12.926293 0 25.93792 1.61792 38.67648 4.805973 78.609067 19.69152 127.730347 94.907733 109.50656 167.676587l-5.618346 22.411947c-14.906027 59.508053-71.212373 101.0688-136.92928 101.0688z m-5.638827-255.003307c-46.902613 0-86.872747 28.808533-97.204907 70.06208l-5.618346 22.411947c-6.096213 24.333653-1.416533 49.88928 13.172053 71.959893 14.998187 22.685013 38.632107 39.03488 66.556587 46.025387a118.398293 118.398293 0 0 0 28.730026 3.584c46.895787 0 86.86592-28.808533 97.19808-70.06208l5.618347-22.41536c12.735147-50.85184-23.02976-103.7824-79.725227-117.98528a118.388053 118.388053 0 0 0-28.726613-3.580587z" fill="#56007A" p-id="3448"></path><path d="M701.866667 688.85504c-15.510187 61.917867-82.66752 98.42688-150.77376 81.36704-68.109653-17.05984-110.127787-80.923307-94.621014-142.834347l5.618347-22.411946c15.506773-61.914453 82.670933-98.423467 150.777173-81.370454 68.10624 17.05984 110.124373 80.923307 94.6176 142.834347l-5.618346 22.41536z" fill="#7902AA" p-id="3449"></path><path d="M584.802987 794.90048c-12.929707 0-25.944747-1.621333-38.68672-4.809387-78.609067-19.69152-127.737173-94.911147-109.509974-167.676586l5.618347-22.411947c14.906027-59.508053 71.215787-101.065387 136.93952-101.065387 12.926293 0 25.941333 1.61792 38.67648 4.805974 78.609067 19.69152 127.737173 94.911147 109.509973 167.676586l-5.618346 22.41536c-14.906027 59.50464-71.212373 101.065387-136.92928 101.065387z m-5.638827-255.00672c-46.902613 0-86.87616 28.808533-97.20832 70.058667l-5.618347 22.41536c-12.735147 50.85184 23.02976 103.7824 79.732054 117.98528 9.489067 2.37568 19.155627 3.584 28.73344 3.584 46.895787 0 86.862507-28.808533 97.19808-70.058667l5.618346-22.41536c12.73856-50.855253-23.026347-103.785813-79.725226-117.988693a118.289067 118.289067 0 0 0-28.730027-3.580587z" fill="#56007A" p-id="3450"></path><path d="M522.632533 870.181547c-15.506773 61.91104-82.670933 98.420053-150.77376 81.360213-68.10624-17.056427-110.127787-80.919893-94.6176-142.82752l5.618347-22.41536c15.506773-61.914453 82.66752-98.42688 150.770347-81.36704 68.10624 17.05984 110.1312 80.91648 94.624426 142.834347l-5.62176 22.41536z" fill="#7902AA" p-id="3451"></path><path d="M405.568853 976.216747c-12.929707 0-25.944747-1.621333-38.68672-4.809387-37.87776-9.485653-70.116693-31.921493-90.770773-63.167147-21.005653-31.77472-27.65824-68.887893-18.735787-104.502613l5.618347-22.41536c14.906027-59.508053 71.212373-101.065387 136.92928-101.065387 12.929707 0 25.944747 1.621333 38.683307 4.809387 78.61248 19.694933 127.737173 94.911147 109.513386 167.676587l-5.618346 22.418773c-14.906027 59.497813-71.212373 101.055147-136.932694 101.055147z m-5.649066-255.003307c-46.895787 0-86.86592 28.808533-97.19808 70.058667l-5.618347 22.41536c-6.096213 24.333653-1.419947 49.88928 13.172053 71.959893 14.998187 22.685013 38.632107 39.031467 66.556587 46.021973a118.48704 118.48704 0 0 0 28.73344 3.584c46.8992 0 86.869333-28.80512 97.19808-70.05184l5.62176-22.418773c12.735147-50.85184-23.033173-103.7824-79.735467-117.98528a118.23104 118.23104 0 0 0-28.730026-3.584z" fill="#56007A" p-id="3452"></path><path d="M193.51552 321.447253c-7.584427 26.269013 0.259413 52.16256 18.138453 72.727894" fill="#7CBC00" p-id="3453"></path><path d="M211.657387 407.825067a13.626027 13.626027 0 0 1-10.308267-4.693334c-21.77024-25.0368-29.405867-56.190293-20.95104-85.47328a13.632853 13.632853 0 0 1 16.902827-9.32864 13.646507 13.646507 0 0 1 9.32864 16.902827c-5.91872 20.507307-0.477867 41.806507 15.325866 59.982507a13.653333 13.653333 0 0 1-10.298026 22.60992z" fill="#FFFFFF" p-id="3454"></path><path d="M281.606827 531.12832m-14.00832 0a14.00832 14.00832 0 1 0 28.01664 0 14.00832 14.00832 0 1 0-28.01664 0Z" fill="#FFFFFF" p-id="3455"></path><path d="M263.591253 570.2144c-7.58784 26.2656 0.259413 52.159147 18.13504 72.72448" fill="#7CBC00" p-id="3456"></path><path d="M281.73312 656.5888a13.6192 13.6192 0 0 1-10.308267-4.696747c-21.77024-25.040213-29.405867-56.190293-20.95104-85.469866a13.646507 13.646507 0 0 1 16.90624-9.325227 13.653333 13.653333 0 0 1 9.32864 16.90624c-5.91872 20.50048-0.477867 41.79968 15.322454 59.97568a13.653333 13.653333 0 0 1-10.298027 22.60992z" fill="#FFFFFF" p-id="3457"></path><path d="M348.177067 772.887893m-14.011734 0a14.011733 14.011733 0 1 0 28.023467 0 14.011733 14.011733 0 1 0-28.023467 0Z" fill="#FFFFFF" p-id="3458"></path><path d="M330.161493 811.97056c-7.584427 26.2656 0.259413 52.159147 18.138454 72.727893" fill="#7CBC00" p-id="3459"></path><path d="M348.30336 898.348373a13.6192 13.6192 0 0 1-10.308267-4.696746c-21.77024-25.040213-29.405867-56.193707-20.95104-85.469867a13.643093 13.643093 0 0 1 16.90624-9.32864 13.653333 13.653333 0 0 1 9.32864 16.902827c-5.91872 20.503893-0.477867 41.803093 15.325867 59.982506a13.653333 13.653333 0 0 1-10.30144 22.60992z" fill="#FFFFFF" p-id="3460"></path><path d="M526.865067 590.6944m-14.00832 0a14.00832 14.00832 0 1 0 28.01664 0 14.00832 14.00832 0 1 0-28.01664 0Z" fill="#FFFFFF" p-id="3461"></path><path d="M508.849493 629.777067c-7.584427 26.2656 0.256 52.159147 18.13504 72.72448" fill="#7CBC00" p-id="3462"></path><path d="M526.994773 716.15488a13.636267 13.636267 0 0 1-10.31168-4.693333c-21.77024-25.0368-29.405867-56.190293-20.95104-85.469867a13.643093 13.643093 0 0 1 16.90624-9.32864 13.646507 13.646507 0 0 1 9.32864 16.902827c-5.91872 20.507307-0.48128 41.806507 15.322454 59.97568a13.66016 13.66016 0 0 1-10.294614 22.613333z" fill="#FFFFFF" p-id="3463"></path><path d="M516.37248 144.994987c-62.163627-52.40832-132.89472-49.875627-190.6176 2.461013-6.8096 75.772587-24.45312 184.613547 50.100907 218.944853 74.543787 34.321067 161.08544 18.193067 218.80832-34.14016 6.81984-75.769173-31.962453-148.196693-78.291627-187.265706z" fill="#96D105" p-id="3464"></path><path d="M458.734933 404.995413h-0.013653c-31.85664 0-62.6176-6.72768-91.426133-19.991893-81.67424-37.608107-71.3216-143.18592-63.761067-220.276053 0.641707-6.550187 1.26976-12.939947 1.82272-19.10784 0.4608-5.12 2.833067-9.885013 6.642347-13.339307 33.0752-29.989547 71.021227-45.841067 109.735253-45.841067 37.26336 0 74.554027 14.834347 107.83744 42.891947 48.0768 40.546987 93.15328 119.58272 85.486933 204.755627a20.48 20.48 0 0 1-6.638933 13.335893c-40.942933 37.126827-94.102187 57.572693-149.684907 57.572693z m-113.34656-247.456426c-0.351573 3.669333-0.7168 7.400107-1.088853 11.188906-6.714027 68.457813-15.069867 153.654613 40.12032 179.06688 23.401813 10.775893 48.397653 16.237227 74.30144 16.24064h0.01024c42.673493 0 83.575467-14.73536 116.0704-41.659733 2.945707-67.413333-33.19808-129.31072-71.632213-161.727147-26.166613-22.060373-53.56544-33.245867-81.435307-33.245866-26.207573 0-52.462933 10.390187-76.346027 30.13632z" fill="#329100" p-id="3465"></path><path d="M604.93824 210.121387c73.92256-33.839787 141.390507-12.445013 182.981973 53.439146-13.738667 74.827093-25.903787 184.418987-106.92608 197.51936-81.015467 13.090133-160.07168-25.634133-201.659733-91.518293 13.728427-74.82368 70.498987-134.208853 125.60384-159.440213z" fill="#96D105" p-id="3466"></path><path d="M649.485653 484.092587c-75.301547 0-147.135147-39.693653-187.470506-103.59808a20.483413 20.483413 0 0 1-2.82624-14.629547c15.43168-84.114773 80.039253-148.18304 137.219413-174.363307 25.7024-11.76576 51.295573-17.732267 76.066133-17.732266 53.510827 0 100.655787 28.0064 132.7616 78.85824a20.45952 20.45952 0 0 1 2.82624 14.63296 2362.85952 2362.85952 0 0 0-3.35872 18.889386c-13.370027 76.301653-31.679147 180.79744-120.439466 195.147094a218.89024 218.89024 0 0 1-34.778454 2.79552z m-148.36736-118.7328c33.56672 48.165547 89.68192 77.7728 148.370774 77.7728 9.417387 0 18.916693-0.764587 28.238506-2.269867 59.982507-9.69728 74.758827-94.02368 86.6304-161.78176 0.65536-3.74784 1.303893-7.441067 1.949014-11.06944-24.25856-34.894507-56.562347-53.27872-93.82912-53.27872-18.845013 0-38.700373 4.713813-59.016534 14.011733-45.714773 20.93056-97.122987 70.874453-112.34304 136.615254z" fill="#329100" p-id="3467"></path><path d="M359.75168 206.629547c-71.888213 37.986987-96.044373 104.512853-69.154133 177.640106 67.69664 34.710187 161.993387 91.866453 221.764266 35.611307 59.753813-56.255147 77.233493-142.53056 50.353494-215.657813-67.69664-34.717013-149.38112-25.9072-202.963627 2.4064z" fill="#96D105" p-id="3468"></path><path d="M450.225493 464.039253h-0.006826c-51.2-0.003413-107.062613-29.221547-151.944534-52.698453-5.829973-3.048107-11.513173-6.02112-17.01888-8.84736a20.483413 20.483413 0 0 1-9.878186-11.154773c-31.071573-84.50048-1.611093-160.31744 78.80704-202.81344 33.437013-17.667413 74.325333-27.395413 115.135146-27.395414 38.099627 0 75.011413 8.6016 106.74176 24.876374a20.49024 20.49024 0 0 1 9.878187 11.158186c30.747307 83.647147 8.946347 176.923307-55.538347 237.636267-20.619947 19.397973-46.250667 29.238613-76.17536 29.238613z m-142.926506-94.194346c3.269973 1.69984 6.591147 3.437227 9.960106 5.198506 40.9088 21.4016 91.825493 48.032427 132.962987 48.03584h0.006827c19.41504 0 35.147093-5.925547 48.09728-18.111146 49.75616-46.841173 68.440747-120.674987 47.783253-186.026667-24.30976-11.045547-52.06016-16.85504-80.786773-16.85504-34.26304 0-68.355413 8.045227-96 22.65088-59.142827 31.25248-81.466027 83.84512-62.02368 145.107627z" fill="#329100" p-id="3469"></path><path d="M745.352533 332.598613c36.952747 73.536853 18.82112 142.035627-44.63616 185.644374-74.8544-11.861333-184.132267-21.20704-200.830293-102.44096-16.6912-81.230507 18.107733-161.850027 81.558187-205.4656 74.857813 11.85792 136.359253 67.44064 163.908266 122.262186z" fill="#96D105" p-id="3470"></path><path d="M700.716373 538.722987a20.206933 20.206933 0 0 1-3.201706-0.252587c-6.096213-0.96256-12.424533-1.91488-18.906454-2.88768-76.20608-11.434667-180.575573-27.091627-198.77888-115.657387-18.00192-87.610027 17.329493-176.503467 90.016427-226.46784a20.48 20.48 0 0 1 14.803627-3.351893c84.073813 13.318827 150.48704 76.544 179.00544 133.29408 41.2672 82.121387 22.074027 161.26976-51.336534 211.72224a20.497067 20.497067 0 0 1-11.60192 3.601067z m-114.353493-306.674347c-53.71904 40.936107-80.305493 112.032427-66.41664 179.63008 12.445013 60.54912 96.887467 73.219413 164.737707 83.397973 3.67616 0.55296 7.304533 1.09568 10.868053 1.6384 50.39104-38.314667 61.938347-94.358187 31.501653-154.924373-22.889813-45.544107-74.799787-96.054613-140.690773-109.74208z" fill="#329100" p-id="3471"></path><path d="M636.50816 439.309653c-27.118933 86.592853-102.294187 143.527253-184.890027 149.131947-64.078507-53.517653-92.928-144.44544-65.805653-231.028053 27.122347-86.58944 102.290773-143.527253 184.890027-149.131947 64.07168 53.521067 92.931413 144.438613 65.805653 231.028053z" fill="#96D105" p-id="3472"></path><path d="M451.618133 608.9216a20.473173 20.473173 0 0 1-13.12768-4.7616c-72.915627-60.89728-101.26336-160.1536-72.22272-252.869973 29.095253-92.890453 108.796587-157.047467 203.045547-163.444054a20.46976 20.46976 0 0 1 14.516907 4.713814c72.912213 60.910933 101.26336 160.167253 72.219306 252.869973-29.09184 92.890453-108.793173 157.047467-203.045546 163.44064-0.464213 0.034133-0.928427 0.0512-1.385814 0.0512z m112.19968-379.46368c-73.649493 8.32512-135.314773 60.17024-158.464 134.075733-22.848853 72.946347-1.488213 153.698987 53.149014 203.728214 73.649493-8.321707 135.314773-60.166827 158.460586-134.07232 22.84544-72.936107 1.481387-153.69216-53.1456-203.731627z" fill="#329100" p-id="3473"></path><path d="M451.62496 608.925013a20.48 20.48 0 0 1-19.592533-26.473813l113.278293-370.56512a20.48 20.48 0 1 1 39.171413 11.973973l-113.281706 370.56512a20.486827 20.486827 0 0 1-19.575467 14.49984z" fill="#329100" p-id="3474"></path><path d="M561.2032 253.484373a20.48 20.48 0 0 1-19.432107-26.96192C547.93216 208.039253 604.115627 47.786667 698.699093 47.786667c1.160533 0 2.32448 0.023893 3.498667 0.07168a20.48 20.48 0 0 1 19.6096 21.316266 20.466347 20.466347 0 0 1-21.316267 19.6096c-55.896747-2.348373-106.584747 110.854827-119.862613 150.688427a20.48 20.48 0 0 1-19.42528 14.011733z" fill="#329100" p-id="3475"></path></svg>